<?xml version="1.0" encoding="UTF-8"?>
<!DOCTYPE svg PUBLIC "-//W3C//DTD SVG 1.1//EN" "http://www.w3.org/Graphics/SVG/1.1/DTD/svg11.dtd">
<svg xmlns="http://www.w3.org/2000/svg" version="1.1" width="2000px" height="1500px" style="shape-rendering:geometricPrecision; text-rendering:geometricPrecision; image-rendering:optimizeQuality; fill-rule:evenodd; clip-rule:evenodd" xmlns:xlink="http://www.w3.org/1999/xlink">
<g><path style="opacity:1" fill="#dcd0a8" d="M -0.5,-0.5 C 666.167,-0.5 1332.83,-0.5 1999.5,-0.5C 1999.5,499.5 1999.5,999.5 1999.5,1499.5C 1332.83,1499.5 666.167,1499.5 -0.5,1499.5C -0.5,999.5 -0.5,499.5 -0.5,-0.5 Z"/></g>
<g><path style="opacity:1" fill="#645e51" d="M 1273.5,395.5 C 1242.17,395.5 1210.83,395.5 1179.5,395.5C 1179.5,630.5 1179.5,865.5 1179.5,1100.5C 1204.5,1100.5 1229.5,1100.5 1254.5,1100.5C 1254.5,952.5 1254.5,804.5 1254.5,656.5C 1255.5,804.666 1255.83,952.999 1255.5,1101.5C 1229.83,1101.5 1204.17,1101.5 1178.5,1101.5C 1178.5,865.833 1178.5,630.167 1178.5,394.5C 1210.34,394.168 1242,394.502 1273.5,395.5 Z"/></g>
<g><path style="opacity:1" fill="#3f3a36" d="M 1273.5,395.5 C 1400.66,591.805 1527.82,788.138 1655,984.5C 1656.11,986.037 1657.61,986.703 1659.5,986.5C 1657.21,937.523 1655.37,888.523 1654,839.5C 1653.5,691.5 1653.33,543.5 1653.5,395.5C 1679.17,395.5 1704.83,395.5 1730.5,395.5C 1730.5,630.833 1730.5,866.167 1730.5,1101.5C 1698.83,1101.83 1667.16,1101.5 1635.5,1100.5C 1507.5,903.167 1379.5,705.833 1251.5,508.5C 1250.31,507.571 1248.98,507.238 1247.5,507.5C 1250.69,557.123 1253.03,606.79 1254.5,656.5C 1254.5,804.5 1254.5,952.5 1254.5,1100.5C 1229.5,1100.5 1204.5,1100.5 1179.5,1100.5C 1179.5,865.5 1179.5,630.5 1179.5,395.5C 1210.83,395.5 1242.17,395.5 1273.5,395.5 Z"/></g>
<g><path style="opacity:1" fill="#978e76" d="M 1653.5,395.5 C 1679.33,394.502 1705.33,394.169 1731.5,394.5C 1731.83,630.334 1731.5,866.001 1730.5,1101.5C 1730.5,866.167 1730.5,630.833 1730.5,395.5C 1704.83,395.5 1679.17,395.5 1653.5,395.5 Z"/></g>
<g><path style="opacity:1" fill="#87c498" d="M 941.5,397.5 C 941.5,420.5 941.5,443.5 941.5,466.5C 739.5,466.5 537.5,466.5 335.5,466.5C 335.5,443.5 335.5,420.5 335.5,397.5C 537.5,397.5 739.5,397.5 941.5,397.5 Z"/></g>
<g><path style="opacity:1" fill="#dbd0a8" d="M 363.5,418.5 C 376.572,418.724 381.406,425.057 378,437.5C 374.268,443.046 369.101,444.879 362.5,443C 354.189,438.405 352.355,431.905 357,423.5C 358.965,421.45 361.132,419.783 363.5,418.5 Z"/></g>
<g><path style="opacity:1" fill="#dbd0a8" d="M 410.5,418.5 C 425.014,419.168 429.514,426.168 424,439.5C 419.033,443.682 413.533,444.516 407.5,442C 398.83,432.859 399.83,425.026 410.5,418.5 Z"/></g>
<g><path style="opacity:1" fill="#dbd0a8" d="M 458.5,418.5 C 470.167,419 475.001,425 473,436.5C 468.422,443.426 462.255,445.259 454.5,442C 445.7,432.494 447.034,424.661 458.5,418.5 Z"/></g>
<g><path style="opacity:1" fill="#dcd0a8" d="M 686.5,419.5 C 764.167,419.333 841.834,419.5 919.5,420C 926.955,423.084 929.455,428.584 927,436.5C 925.332,440.165 922.499,442.332 918.5,443C 841.5,443.667 764.5,443.667 687.5,443C 677.255,435.491 676.922,427.657 686.5,419.5 Z"/></g>
<g><path style="opacity:1" fill="#b0cba0" d="M 941.5,397.5 C 942.498,420.661 942.831,443.994 942.5,467.5C 739.999,467.833 537.666,467.5 335.5,466.5C 537.5,466.5 739.5,466.5 941.5,466.5C 941.5,443.5 941.5,420.5 941.5,397.5 Z"/></g>
<g><path style="opacity:1" fill="#87c498" d="M 335.5,490.5 C 459.833,490.5 584.167,490.5 708.5,490.5C 708.5,646.167 708.5,801.833 708.5,957.5C 700.833,957.5 693.167,957.5 685.5,957.5C 685.667,915.499 685.5,873.499 685,831.5C 683.489,825.635 679.989,821.468 674.5,819C 561.557,817.506 448.557,817.006 335.5,817.5C 335.5,708.5 335.5,599.5 335.5,490.5 Z"/></g>
<g><path style="opacity:1" fill="#b5caa1" d="M 732.5,490.5 C 732.5,645.833 732.5,801.167 732.5,956.5C 802.167,956.5 871.833,956.5 941.5,956.5C 941.5,801.167 941.5,645.833 941.5,490.5C 942.5,645.999 942.833,801.666 942.5,957.5C 872.167,957.5 801.833,957.5 731.5,957.5C 731.167,801.666 731.5,645.999 732.5,490.5 Z"/></g>
<g><path style="opacity:1" fill="#87c498" d="M 732.5,490.5 C 802.167,490.5 871.833,490.5 941.5,490.5C 941.5,645.833 941.5,801.167 941.5,956.5C 871.833,956.5 802.167,956.5 732.5,956.5C 732.5,801.167 732.5,645.833 732.5,490.5 Z"/></g>
<g><path style="opacity:1" fill="#dcd0a8" d="M 364.5,513.5 C 374.172,513.334 383.839,513.5 393.5,514C 401.105,517.725 403.272,523.558 400,531.5C 398.125,534.187 395.625,536.021 392.5,537C 383.5,537.667 374.5,537.667 365.5,537C 358.567,533.628 356.067,528.128 358,520.5C 359.694,517.642 361.861,515.309 364.5,513.5 Z"/></g>
<g><path style="opacity:1" fill="#dcd0a8" d="M 436.5,513.5 C 446.912,513.074 457.246,513.574 467.5,515C 476.166,523.669 475.166,531.002 464.5,537C 455.167,537.667 445.833,537.667 436.5,537C 425.9,529.125 425.9,521.291 436.5,513.5 Z"/></g>
<g><path style="opacity:1" fill="#dcd0a8" d="M 507.5,513.5 C 517.172,513.334 526.839,513.5 536.5,514C 544.94,518.454 546.774,524.954 542,533.5C 540.2,535.317 538.034,536.484 535.5,537C 526.5,537.667 517.5,537.667 508.5,537C 501.567,533.628 499.067,528.128 501,520.5C 502.694,517.642 504.861,515.309 507.5,513.5 Z"/></g>
<g><path style="opacity:1" fill="#dcd0a8" d="M 579.5,513.5 C 589.912,513.074 600.246,513.574 610.5,515C 616.94,519.732 618.106,525.565 614,532.5C 612.363,534.81 610.196,536.31 607.5,537C 598.167,537.667 588.833,537.667 579.5,537C 568.888,529.17 568.888,521.336 579.5,513.5 Z"/></g>
<g><path style="opacity:1" fill="#dcd0a8" d="M 650.5,513.5 C 660.172,513.334 669.839,513.5 679.5,514C 687.94,518.454 689.774,524.954 685,533.5C 683.2,535.317 681.034,536.484 678.5,537C 668.733,537.947 659.066,537.613 649.5,536C 641.27,528.111 641.604,520.611 650.5,513.5 Z"/></g>
<g><path style="opacity:1" fill="#dcd0a8" d="M 751.5,536.5 C 808.168,536.333 864.834,536.5 921.5,537C 930.754,541.028 932.921,547.528 928,556.5C 926.421,558.041 924.587,559.208 922.5,560C 865.167,560.667 807.833,560.667 750.5,560C 743.655,555.775 741.822,549.942 745,542.5C 746.914,540.144 749.081,538.144 751.5,536.5 Z"/></g>
<g><path style="opacity:1" fill="#dcd0a8" d="M 364.5,574.5 C 469.501,574.333 574.501,574.5 679.5,575C 685.105,576.774 687.771,580.607 687.5,586.5C 687.803,592.368 685.137,596.202 679.5,598C 574.5,598.667 469.5,598.667 364.5,598C 357.451,593.513 355.617,587.346 359,579.5C 360.73,577.598 362.563,575.931 364.5,574.5 Z"/></g>
<g><path style="opacity:1" fill="#dcd0a8" d="M 751.5,606.5 C 808.168,606.333 864.834,606.5 921.5,607C 930.746,611.009 932.913,617.509 928,626.5C 926.681,628.487 924.848,629.654 922.5,630C 865.167,630.667 807.833,630.667 750.5,630C 743.93,626.345 741.763,620.845 744,613.5C 745.742,610.254 748.242,607.921 751.5,606.5 Z"/></g>
<g><path style="opacity:1" fill="#dcd0a8" d="M 364.5,629.5 C 469.501,629.333 574.501,629.5 679.5,630C 683.667,631.5 686.5,634.333 688,638.5C 688.667,671.833 688.667,705.167 688,738.5C 686.167,743 683,746.167 678.5,748C 573.444,748.993 468.444,748.66 363.5,747C 360.567,744.736 358.4,741.902 357,738.5C 356.333,705.167 356.333,671.833 357,638.5C 358.642,634.7 361.142,631.7 364.5,629.5 Z"/></g>
<g><path style="opacity:1" fill="#87c498" d="M 381.5,653.5 C 475.5,653.5 569.5,653.5 663.5,653.5C 663.5,676.833 663.5,700.167 663.5,723.5C 569.5,723.5 475.5,723.5 381.5,723.5C 381.5,700.167 381.5,676.833 381.5,653.5 Z"/></g>
<g><path style="opacity:1" fill="#dcd0a8" d="M 751.5,676.5 C 807.834,676.333 864.168,676.5 920.5,677C 930.62,680.423 933.12,686.923 928,696.5C 926.421,698.041 924.587,699.208 922.5,700C 865.167,700.667 807.833,700.667 750.5,700C 743.655,695.775 741.822,689.942 745,682.5C 746.914,680.144 749.081,678.144 751.5,676.5 Z"/></g>
<g><path style="opacity:1" fill="#dcd0a8" d="M 751.5,746.5 C 808.168,746.333 864.834,746.5 921.5,747C 930.754,751.028 932.921,757.528 928,766.5C 926.421,768.041 924.587,769.208 922.5,770C 865.167,770.667 807.833,770.667 750.5,770C 743.655,765.775 741.822,759.942 745,752.5C 746.914,750.144 749.081,748.144 751.5,746.5 Z"/></g>
<g><path style="opacity:1" fill="#dcd0a8" d="M 364.5,772.5 C 375.27,772.047 385.937,772.547 396.5,774C 402.142,779.432 402.976,785.599 399,792.5C 397.2,794.317 395.034,795.484 392.5,796C 383.5,796.667 374.5,796.667 365.5,796C 358.026,792.88 355.526,787.38 358,779.5C 359.694,776.642 361.861,774.309 364.5,772.5 Z"/></g>
<g><path style="opacity:1" fill="#dcd0a8" d="M 435.5,772.5 C 445.506,772.334 455.506,772.5 465.5,773C 473.725,777.193 475.558,783.359 471,791.5C 469.269,793.617 467.102,795.117 464.5,796C 455.167,796.667 445.833,796.667 436.5,796C 428.376,791.293 426.543,784.793 431,776.5C 432.667,775.267 434.167,773.933 435.5,772.5 Z"/></g>
<g><path style="opacity:1" fill="#dcd0a8" d="M 507.5,772.5 C 518.245,772.071 528.912,772.571 539.5,774C 545.142,779.432 545.976,785.599 542,792.5C 540.2,794.317 538.034,795.484 535.5,796C 526.5,796.667 517.5,796.667 508.5,796C 501.567,792.628 499.067,787.128 501,779.5C 502.694,776.642 504.861,774.309 507.5,772.5 Z"/></g>
<g><path style="opacity:1" fill="#dcd0a8" d="M 578.5,772.5 C 588.506,772.334 598.506,772.5 608.5,773C 616.105,776.725 618.272,782.558 615,790.5C 613.039,793.135 610.539,794.969 607.5,796C 598.167,796.667 588.833,796.667 579.5,796C 569.265,788.539 568.931,780.706 578.5,772.5 Z"/></g>
<g><path style="opacity:1" fill="#dcd0a8" d="M 650.5,772.5 C 660.506,772.334 670.506,772.5 680.5,773C 687.07,776.655 689.237,782.155 687,789.5C 685.332,793.165 682.499,795.332 678.5,796C 669.5,796.667 660.5,796.667 651.5,796C 644.786,792.56 642.286,787.06 644,779.5C 645.694,776.642 647.861,774.309 650.5,772.5 Z"/></g>
<g><path style="opacity:1" fill="#dcd0a8" d="M 758.5,817.5 C 810.501,817.333 862.501,817.5 914.5,818C 918.333,819.167 920.833,821.667 922,825.5C 922.98,860.56 922.646,895.56 921,930.5C 919.125,933.187 916.625,935.021 913.5,936C 862.167,936.667 810.833,936.667 759.5,936C 755.23,934.73 752.73,931.896 752,927.5C 751.333,893.167 751.333,858.833 752,824.5C 753.694,821.642 755.861,819.309 758.5,817.5 Z"/></g>
<g><path style="opacity:1" fill="#87c498" d="M 661.5,840.5 C 661.5,918.167 661.5,995.833 661.5,1073.5C 529.5,1073.5 397.5,1073.5 265.5,1073.5C 265.5,995.833 265.5,918.167 265.5,840.5C 397.5,840.5 529.5,840.5 661.5,840.5 Z"/></g>
<g><path style="opacity:1" fill="#87c498" d="M 776.5,841.5 C 817.167,841.5 857.833,841.5 898.5,841.5C 898.5,864.833 898.5,888.167 898.5,911.5C 857.833,911.5 817.167,911.5 776.5,911.5C 776.5,888.167 776.5,864.833 776.5,841.5 Z"/></g>
<g><path style="opacity:1" fill="#dcd0a8" d="M 485.5,868.5 C 496.205,868.698 501.038,874.032 500,884.5C 482.197,936.908 464.197,989.241 446,1041.5C 439.597,1046.77 433.263,1046.77 427,1041.5C 424.702,1037.78 424.035,1033.78 425,1029.5C 442.136,978.426 459.469,927.426 477,876.5C 479.074,872.923 481.907,870.256 485.5,868.5 Z"/></g>
<g><path style="opacity:1" fill="#dcd0a8" d="M 400.5,880.5 C 414.391,880.885 418.891,887.551 414,900.5C 390.5,919.333 367,938.167 343.5,957C 367.624,976.122 391.457,995.622 415,1015.5C 418.367,1028.8 413.2,1034.64 399.5,1033C 370.711,1010.55 342.211,987.713 314,964.5C 310.117,957.969 310.95,952.135 316.5,947C 344.687,924.97 372.687,902.803 400.5,880.5 Z"/></g>
<g><path style="opacity:1" fill="#dcd0a8" d="M 518.5,880.5 C 524.722,879.779 530.056,881.613 534.5,886C 561.275,907.141 587.775,928.641 614,950.5C 617.027,958.089 615.193,964.255 608.5,969C 581.682,990.574 554.682,1011.91 527.5,1033C 513.835,1034.67 508.668,1028.84 512,1015.5C 535.558,995.641 559.391,976.141 583.5,957C 559.376,937.878 535.543,918.378 512,898.5C 508.82,890.532 510.987,884.532 518.5,880.5 Z"/></g>
<g><path style="opacity:1" fill="#a4c99d" d="M 776.5,841.5 C 776.5,864.833 776.5,888.167 776.5,911.5C 817.167,911.5 857.833,911.5 898.5,911.5C 857.67,912.499 816.67,912.832 775.5,912.5C 775.169,888.661 775.502,864.994 776.5,841.5 Z"/></g>
<g><path style="opacity:1" fill="#cbcea4" d="M 661.5,840.5 C 662.499,918.332 662.833,996.332 662.5,1074.5C 529.999,1074.83 397.666,1074.5 265.5,1073.5C 397.5,1073.5 529.5,1073.5 661.5,1073.5C 661.5,995.833 661.5,918.167 661.5,840.5 Z"/></g>
</svg>
